<svg width="720" height="920" viewBox="0 0 720 920" fill="none" xmlns="http://www.w3.org/2000/svg">
  <defs>
    <linearGradient id="fade" x1="360" y1="60" x2="360" y2="860" gradientUnits="userSpaceOnUse">
      <stop stop-color="#1D1D1F" stop-opacity="0"/>
      <stop offset="0.18" stop-color="#1D1D1F" stop-opacity="0.2"/>
      <stop offset="0.62" stop-color="#1D1D1F" stop-opacity="0.16"/>
      <stop offset="1" stop-color="#1D1D1F" stop-opacity="0"/>
    </linearGradient>
    <linearGradient id="soft" x1="122" y1="66" x2="600" y2="790" gradientUnits="userSpaceOnUse">
      <stop stop-color="#0066CC" stop-opacity="0.12"/>
      <stop offset="0.48" stop-color="#1D1D1F" stop-opacity="0.1"/>
      <stop offset="1" stop-color="#0066CC" stop-opacity="0.05"/>
    </linearGradient>
    <filter id="blur">
      <feGaussianBlur stdDeviation="0.18"/>
    </filter>
  </defs>

  <path d="M102 710H616" stroke="url(#fade)" stroke-width="1"/>
  <path d="M118 710V642H146V595H176V710M205 710V555H244V618H282V506H328V710M358 710V590H394V532H438V710M468 710V468H522V710M548 710V615H586V710" stroke="url(#fade)" stroke-width="1.4" stroke-linejoin="round"/>
  <path d="M126 645H144M210 582H240M212 608H240M364 612H392M476 496H516M476 530H516M476 564H516M552 638H584" stroke="#1D1D1F" stroke-opacity="0.075" stroke-width="1"/>

  <g opacity="0.72" filter="url(#blur)">
    <path d="M114 224C184 180 268 174 338 220C419 274 504 250 594 196" stroke="url(#soft)" stroke-width="1.2"/>
    <path d="M126 260C204 218 284 230 358 266C440 306 514 286 600 242" stroke="url(#soft)" stroke-width="1"/>
    <path d="M150 306C226 288 284 302 344 332C424 372 520 356 596 314" stroke="url(#soft)" stroke-width="1"/>
  </g>

  <g opacity="0.9">
    <path d="M198 176L248 148L300 177V234L248 263L198 234V176Z" stroke="#1D1D1F" stroke-opacity="0.09" stroke-width="1"/>
    <path d="M248 148V206M198 176L248 206L300 177M248 206V263" stroke="#1D1D1F" stroke-opacity="0.065" stroke-width="1"/>
    <circle cx="248" cy="206" r="8" fill="#0066CC" fill-opacity="0.055"/>
  </g>

  <g opacity="0.9">
    <rect x="104" y="386" width="10" height="10" rx="2.5" fill="#1D1D1F" fill-opacity="0.035"/>
    <rect x="122" y="386" width="10" height="10" rx="2.5" fill="#0066CC" fill-opacity="0.05"/>
    <rect x="140" y="386" width="10" height="10" rx="2.5" fill="#1D1D1F" fill-opacity="0.04"/>
    <rect x="158" y="386" width="10" height="10" rx="2.5" fill="#1D1D1F" fill-opacity="0.06"/>
    <rect x="176" y="386" width="10" height="10" rx="2.5" fill="#0066CC" fill-opacity="0.08"/>
    <rect x="194" y="386" width="10" height="10" rx="2.5" fill="#1D1D1F" fill-opacity="0.035"/>
    <rect x="212" y="386" width="10" height="10" rx="2.5" fill="#1D1D1F" fill-opacity="0.045"/>
    <rect x="230" y="386" width="10" height="10" rx="2.5" fill="#0066CC" fill-opacity="0.075"/>

    <rect x="104" y="404" width="10" height="10" rx="2.5" fill="#1D1D1F" fill-opacity="0.045"/>
    <rect x="122" y="404" width="10" height="10" rx="2.5" fill="#1D1D1F" fill-opacity="0.04"/>
    <rect x="140" y="404" width="10" height="10" rx="2.5" fill="#0066CC" fill-opacity="0.075"/>
    <rect x="158" y="404" width="10" height="10" rx="2.5" fill="#1D1D1F" fill-opacity="0.035"/>
    <rect x="176" y="404" width="10" height="10" rx="2.5" fill="#1D1D1F" fill-opacity="0.06"/>
    <rect x="194" y="404" width="10" height="10" rx="2.5" fill="#0066CC" fill-opacity="0.09"/>
    <rect x="212" y="404" width="10" height="10" rx="2.5" fill="#1D1D1F" fill-opacity="0.045"/>
    <rect x="230" y="404" width="10" height="10" rx="2.5" fill="#1D1D1F" fill-opacity="0.035"/>

    <rect x="104" y="422" width="10" height="10" rx="2.5" fill="#0066CC" fill-opacity="0.065"/>
    <rect x="122" y="422" width="10" height="10" rx="2.5" fill="#1D1D1F" fill-opacity="0.035"/>
    <rect x="140" y="422" width="10" height="10" rx="2.5" fill="#1D1D1F" fill-opacity="0.04"/>
    <rect x="158" y="422" width="10" height="10" rx="2.5" fill="#0066CC" fill-opacity="0.08"/>
    <rect x="176" y="422" width="10" height="10" rx="2.5" fill="#1D1D1F" fill-opacity="0.04"/>
    <rect x="194" y="422" width="10" height="10" rx="2.5" fill="#1D1D1F" fill-opacity="0.05"/>
    <rect x="212" y="422" width="10" height="10" rx="2.5" fill="#0066CC" fill-opacity="0.1"/>
    <rect x="230" y="422" width="10" height="10" rx="2.5" fill="#1D1D1F" fill-opacity="0.04"/>

    <rect x="104" y="440" width="10" height="10" rx="2.5" fill="#1D1D1F" fill-opacity="0.035"/>
    <rect x="122" y="440" width="10" height="10" rx="2.5" fill="#0066CC" fill-opacity="0.06"/>
    <rect x="140" y="440" width="10" height="10" rx="2.5" fill="#0066CC" fill-opacity="0.085"/>
    <rect x="158" y="440" width="10" height="10" rx="2.5" fill="#1D1D1F" fill-opacity="0.04"/>
    <rect x="176" y="440" width="10" height="10" rx="2.5" fill="#0066CC" fill-opacity="0.08"/>
    <rect x="194" y="440" width="10" height="10" rx="2.5" fill="#1D1D1F" fill-opacity="0.035"/>
    <rect x="212" y="440" width="10" height="10" rx="2.5" fill="#1D1D1F" fill-opacity="0.04"/>
    <rect x="230" y="440" width="10" height="10" rx="2.5" fill="#0066CC" fill-opacity="0.07"/>
  </g>
</svg>
