<svg width="960" height="600" viewBox="0 0 960 600" fill="none" xmlns="http://www.w3.org/2000/svg">
  <rect width="960" height="600" rx="36" fill="#F7F4ED"/>
  <g filter="url(#shadow)">
    <rect x="88" y="80" width="248" height="440" rx="42" fill="#111827"/>
    <rect x="104" y="100" width="216" height="400" rx="32" fill="#FFFDFC"/>
    <text x="144" y="146" fill="#7A746D" font-size="16" font-family="Arial, sans-serif">Receipt OCR</text>
    <rect x="136" y="166" width="152" height="144" rx="20" fill="#FCFAF6" stroke="#E4DDD3"/>
    <text x="160" y="206" fill="#171717" font-size="18" font-weight="700" font-family="Arial, sans-serif">Cafe bill</text>
    <text x="160" y="234" fill="#7A746D" font-size="16" font-family="Arial, sans-serif">Pizza</text>
    <text x="248" y="234" fill="#7A746D" font-size="16" font-family="Arial, sans-serif">Rs 280</text>
    <text x="160" y="260" fill="#7A746D" font-size="16" font-family="Arial, sans-serif">Cab</text>
    <text x="248" y="260" fill="#7A746D" font-size="16" font-family="Arial, sans-serif">Rs 190</text>
    <text x="160" y="286" fill="#7A746D" font-size="16" font-family="Arial, sans-serif">Tax</text>
    <text x="248" y="286" fill="#7A746D" font-size="16" font-family="Arial, sans-serif">Rs 70</text>
    <rect x="136" y="338" width="92" height="34" rx="17" fill="#FF6F88"/>
    <text x="166" y="360" fill="#FFFDFC" font-size="16" font-weight="700" font-family="Arial, sans-serif">Voice</text>
    <circle cx="276" cy="356" r="18" fill="#111827"/>
    <path d="M276 347V361" stroke="#FFFDFC" stroke-width="4" stroke-linecap="round"/>
    <path d="M270 353C270 349.686 272.686 347 276 347C279.314 347 282 349.686 282 353V355C282 358.314 279.314 361 276 361C272.686 361 270 358.314 270 355V353Z" stroke="#FFFDFC" stroke-width="4"/>
  </g>
  <g filter="url(#shadow)">
    <rect x="396" y="112" width="478" height="376" rx="30" fill="#FFFDFC" stroke="#E4DDD3"/>
  </g>
  <text x="436" y="154" fill="#7A746D" font-size="18" font-family="Arial, sans-serif">Split + UPI</text>
  <rect x="434" y="178" width="402" height="78" rx="22" fill="#F8FBFF" stroke="#DCE6F7"/>
  <text x="464" y="212" fill="#171717" font-size="18" font-weight="700" font-family="Arial, sans-serif">Abhi</text>
  <text x="760" y="212" fill="#171717" font-size="18" font-weight="700" font-family="Arial, sans-serif">Rs 180</text>
  <text x="464" y="238" fill="#7A746D" font-size="16" font-family="Arial, sans-serif">Claimed pizza + tax</text>
  <rect x="434" y="274" width="402" height="78" rx="22" fill="#F8FBFF" stroke="#DCE6F7"/>
  <text x="464" y="308" fill="#171717" font-size="18" font-weight="700" font-family="Arial, sans-serif">Aryan</text>
  <text x="760" y="308" fill="#171717" font-size="18" font-weight="700" font-family="Arial, sans-serif">Rs 160</text>
  <text x="464" y="334" fill="#7A746D" font-size="16" font-family="Arial, sans-serif">Claimed cab + shared tax</text>
  <rect x="434" y="384" width="146" height="42" rx="21" fill="#111827"/>
  <text x="470" y="411" fill="#FFFDFC" font-size="18" font-weight="700" font-family="Arial, sans-serif">Pay via UPI</text>
  <rect x="596" y="384" width="112" height="42" rx="21" fill="#FFF1F4" stroke="#FFD4DD"/>
  <text x="626" y="411" fill="#FF6F88" font-size="18" font-weight="700" font-family="Arial, sans-serif">Settle</text>
  <defs>
    <filter id="shadow" x="70" y="64" width="822" height="468" filterUnits="userSpaceOnUse" color-interpolation-filters="sRGB">
      <feFlood flood-opacity="0" result="BackgroundImageFix"/>
      <feColorMatrix in="SourceAlpha" type="matrix" values="0 0 0 0 0 0 0 0 0 0 0 0 0 0 0 0 0 0 127 0" result="hardAlpha"/>
      <feOffset dy="10"/>
      <feGaussianBlur stdDeviation="9"/>
      <feComposite in2="hardAlpha" operator="out"/>
      <feColorMatrix type="matrix" values="0 0 0 0 0.203922 0 0 0 0 0.266667 0 0 0 0 0.364706 0 0 0 0.1 0"/>
      <feBlend mode="normal" in2="BackgroundImageFix" result="effect1_dropShadow_0_1"/>
      <feBlend mode="normal" in="SourceGraphic" in2="effect1_dropShadow_0_1" result="shape"/>
    </filter>
  </defs>
</svg>
