<svg width="960" height="600" viewBox="0 0 960 600" fill="none" xmlns="http://www.w3.org/2000/svg">
  <rect width="960" height="600" rx="36" fill="#F7F4ED"/>
  <rect x="66" y="92" width="266" height="416" rx="28" fill="#FFFDFC" stroke="#E4DDD3"/>
  <text x="98" y="136" fill="#7A746D" font-size="18" font-family="Arial, sans-serif">Goal</text>
  <rect x="96" y="154" width="206" height="72" rx="18" fill="#F4F7FF"/>
  <text x="120" y="192" fill="#161616" font-size="24" font-weight="700" font-family="Arial, sans-serif">Become an ML</text>
  <text x="120" y="220" fill="#161616" font-size="24" font-weight="700" font-family="Arial, sans-serif">engineer</text>
  <text x="98" y="270" fill="#7A746D" font-size="18" font-family="Arial, sans-serif">AI plan</text>
  <rect x="96" y="288" width="206" height="96" rx="20" fill="#FCFAF6" stroke="#E5DED4"/>
  <text x="118" y="324" fill="#3B6DFF" font-size="18" font-weight="700" font-family="Arial, sans-serif">Prompt ready</text>
  <text x="118" y="350" fill="#7A746D" font-size="16" font-family="Arial, sans-serif">Target role, timeline,</text>
  <text x="118" y="372" fill="#7A746D" font-size="16" font-family="Arial, sans-serif">and current level</text>
  <rect x="96" y="418" width="118" height="38" rx="19" fill="#3B6DFF"/>
  <text x="124" y="442" fill="#FFFDFC" font-size="17" font-weight="700" font-family="Arial, sans-serif">Generate</text>
  <g filter="url(#shadow)">
    <rect x="382" y="100" width="512" height="400" rx="30" fill="#FFFDFC" stroke="#E4DDD3"/>
  </g>
  <text x="420" y="142" fill="#7A746D" font-size="18" font-family="Arial, sans-serif">Roadmap graph</text>
  <circle cx="482" cy="206" r="34" fill="#3B6DFF"/>
  <text x="452" y="212" fill="#FFFDFC" font-size="18" font-weight="700" font-family="Arial, sans-serif">Start</text>
  <circle cx="616" cy="170" r="30" fill="#6ED08B"/>
  <text x="576" y="176" fill="#0E2A12" font-size="17" font-weight="700" font-family="Arial, sans-serif">Python</text>
  <circle cx="734" cy="242" r="30" fill="#111827"/>
  <text x="690" y="248" fill="#FFFDFC" font-size="17" font-weight="700" font-family="Arial, sans-serif">Models</text>
  <circle cx="616" cy="336" r="30" fill="#8B7BFF"/>
  <text x="570" y="342" fill="#FFFDFC" font-size="17" font-weight="700" font-family="Arial, sans-serif">Projects</text>
  <circle cx="790" cy="350" r="28" fill="#F2B94B"/>
  <text x="754" y="356" fill="#5A4000" font-size="16" font-weight="700" font-family="Arial, sans-serif">Apply</text>
  <path d="M512 198L586 178" stroke="#CDD9FF" stroke-width="8" stroke-linecap="round"/>
  <path d="M642 184L706 226" stroke="#CDD9FF" stroke-width="8" stroke-linecap="round"/>
  <path d="M704 264L642 318" stroke="#DDD6FF" stroke-width="8" stroke-linecap="round"/>
  <path d="M512 222L586 320" stroke="#DDD6FF" stroke-width="8" stroke-linecap="round"/>
  <path d="M646 338L760 348" stroke="#F8D88D" stroke-width="8" stroke-linecap="round"/>
  <rect x="428" y="414" width="106" height="18" rx="9" fill="#EDE6DC"/>
  <rect x="550" y="414" width="126" height="18" rx="9" fill="#EDE6DC"/>
  <rect x="692" y="414" width="86" height="18" rx="9" fill="#EDE6DC"/>
  <defs>
    <filter id="shadow" x="364" y="88" width="548" height="436" filterUnits="userSpaceOnUse" color-interpolation-filters="sRGB">
      <feFlood flood-opacity="0" result="BackgroundImageFix"/>
      <feColorMatrix in="SourceAlpha" type="matrix" values="0 0 0 0 0 0 0 0 0 0 0 0 0 0 0 0 0 0 127 0" result="hardAlpha"/>
      <feOffset dy="10"/>
      <feGaussianBlur stdDeviation="9"/>
      <feComposite in2="hardAlpha" operator="out"/>
      <feColorMatrix type="matrix" values="0 0 0 0 0.203922 0 0 0 0 0.266667 0 0 0 0 0.364706 0 0 0 0.1 0"/>
      <feBlend mode="normal" in2="BackgroundImageFix" result="effect1_dropShadow_0_1"/>
      <feBlend mode="normal" in="SourceGraphic" in2="effect1_dropShadow_0_1" result="shape"/>
    </filter>
  </defs>
</svg>
