<svg width="960" height="600" viewBox="0 0 960 600" fill="none" xmlns="http://www.w3.org/2000/svg">
  <rect width="960" height="600" rx="36" fill="#F7F4ED"/>
  <g filter="url(#shadow)">
    <rect x="96" y="114" width="768" height="372" rx="34" fill="#FFFDFC" stroke="#E2DDD2"/>
    <ellipse cx="480" cy="404" rx="236" ry="54" fill="#EEF2FB"/>
    <circle cx="160" cy="202" r="24" fill="#FFFFFF" stroke="#DDE4F2"/>
    <circle cx="800" cy="202" r="24" fill="#FFFFFF" stroke="#DDE4F2"/>
    <circle cx="160" cy="202" r="8" fill="#6D78E8"/>
    <circle cx="800" cy="202" r="8" fill="#7DE2AF"/>
    <path d="M184 202H248" stroke="#D7DDF0" stroke-width="6" stroke-linecap="round"/>
    <path d="M712 202H776" stroke="#D7DDF0" stroke-width="6" stroke-linecap="round"/>
    <rect x="230" y="218" width="114" height="100" rx="24" fill="#FFFFFF" stroke="#DDE4F2"/>
    <rect x="260" y="244" width="54" height="12" rx="6" fill="#D2DCF5"/>
    <rect x="260" y="268" width="38" height="12" rx="6" fill="#6D78E8"/>
    <rect x="386" y="194" width="136" height="116" rx="26" fill="#171A24" stroke="#4953A6"/>
    <rect x="420" y="224" width="68" height="12" rx="6" fill="#F0F3FF"/>
    <rect x="420" y="248" width="92" height="12" rx="6" fill="#7480F2"/>
    <rect x="564" y="218" width="114" height="100" rx="24" fill="#FFFFFF" stroke="#DDE4F2"/>
    <rect x="594" y="244" width="54" height="12" rx="6" fill="#D2DCF5"/>
    <rect x="594" y="268" width="38" height="12" rx="6" fill="#7DE2AF"/>
    <path d="M344 268H386" stroke="#8391FF" stroke-width="8" stroke-linecap="round"/>
    <path d="M522 268H564" stroke="#8391FF" stroke-width="8" stroke-linecap="round"/>
    <path d="M366 268L344 268M542 268L564 268" stroke="#8391FF" stroke-width="8" stroke-linecap="round"/>
    <circle cx="344" cy="268" r="8" fill="#8391FF"/>
    <circle cx="386" cy="268" r="8" fill="#8391FF"/>
    <circle cx="522" cy="268" r="8" fill="#8391FF"/>
    <circle cx="564" cy="268" r="8" fill="#8391FF"/>
    <rect x="300" y="360" width="360" height="72" rx="24" fill="#FCFAF6" stroke="#E2DDD2"/>
    <circle cx="342" cy="396" r="10" fill="#6D78E8"/>
    <circle cx="422" cy="396" r="10" fill="#A3ACFF"/>
    <circle cx="502" cy="396" r="10" fill="#171A24"/>
    <circle cx="582" cy="396" r="10" fill="#7DE2AF"/>
    <path d="M352 396H412M432 396H492M512 396H572" stroke="#C7D0E8" stroke-width="6" stroke-linecap="round"/>
  </g>
  <defs>
    <filter id="shadow" x="76" y="98" width="808" height="412" filterUnits="userSpaceOnUse" color-interpolation-filters="sRGB">
      <feFlood flood-opacity="0" result="BackgroundImageFix"/>
      <feColorMatrix in="SourceAlpha" type="matrix" values="0 0 0 0 0 0 0 0 0 0 0 0 0 0 0 0 0 0 127 0" result="hardAlpha"/>
      <feOffset dy="10"/>
      <feGaussianBlur stdDeviation="10"/>
      <feColorMatrix type="matrix" values="0 0 0 0 0.2 0 0 0 0 0.19 0 0 0 0 0.29 0 0 0 0.1 0"/>
      <feBlend mode="normal" in2="BackgroundImageFix" result="effect1_dropShadow_0_1"/>
      <feBlend mode="normal" in="SourceGraphic" in2="effect1_dropShadow_0_1" result="shape"/>
    </filter>
  </defs>
</svg>
