<svg width="960" height="600" viewBox="0 0 960 600" fill="none" xmlns="http://www.w3.org/2000/svg">
  <rect width="960" height="600" rx="36" fill="#101010"/>
  <rect x="96" y="84" width="768" height="432" rx="34" fill="#151515" stroke="#272727"/>
  <rect x="96" y="84" width="768" height="50" rx="34" fill="#1B1B1B"/>
  <circle cx="132" cy="109" r="6.5" fill="#FFB84C"/>
  <circle cx="152" cy="109" r="6.5" fill="#FF7D68"/>
  <circle cx="172" cy="109" r="6.5" fill="#74D995"/>
  <rect x="120" y="152" width="150" height="338" rx="24" fill="#161616" stroke="#2A2A2A"/>
  <rect x="142" y="182" width="106" height="16" rx="8" fill="#2F3653"/>
  <rect x="142" y="218" width="84" height="14" rx="7" fill="#2C2C2C"/>
  <rect x="142" y="246" width="96" height="14" rx="7" fill="#2C2C2C"/>
  <rect x="142" y="274" width="72" height="14" rx="7" fill="#8794FF"/>
  <rect x="142" y="332" width="92" height="14" rx="7" fill="#2C2C2C"/>
  <rect x="142" y="360" width="78" height="14" rx="7" fill="#2C2C2C"/>
  <rect x="142" y="388" width="104" height="14" rx="7" fill="#2C2C2C"/>
  <rect x="292" y="152" width="344" height="338" rx="24" fill="#090A0E" stroke="#22263A"/>
  <rect x="320" y="176" width="92" height="20" rx="10" fill="#1A1E2C"/>
  <rect x="420" y="176" width="82" height="20" rx="10" fill="#202536"/>
  <rect x="514" y="176" width="96" height="20" rx="10" fill="#202536"/>
  <rect x="324" y="226" width="182" height="12" rx="6" fill="#8894FF"/>
  <rect x="324" y="258" width="224" height="16" rx="8" fill="#F2F4FF"/>
  <rect x="324" y="292" width="176" height="12" rx="6" fill="#9CA3AF"/>
  <rect x="348" y="324" width="144" height="12" rx="6" fill="#7DE2AF"/>
  <rect x="324" y="376" width="280" height="82" rx="20" fill="#10131E" stroke="#323A5E"/>
  <rect x="348" y="402" width="116" height="12" rx="6" fill="#E6EAF5"/>
  <rect x="348" y="426" width="186" height="12" rx="6" fill="#5D72FF"/>
  <rect x="654" y="152" width="186" height="338" rx="24" fill="#14161D" stroke="#2B3348"/>
  <rect x="680" y="182" width="96" height="18" rx="9" fill="#2C3446"/>
  <rect x="680" y="220" width="132" height="74" rx="20" fill="#171B25" stroke="#2F3750"/>
  <circle cx="710" cy="247" r="11" fill="#6C77EA"/>
  <rect x="730" y="238" width="52" height="12" rx="6" fill="#2F3750"/>
  <rect x="730" y="260" width="42" height="12" rx="6" fill="#7DE2AF"/>
  <rect x="680" y="314" width="132" height="74" rx="20" fill="#171B25" stroke="#2F3750"/>
  <circle cx="710" cy="341" r="11" fill="#FFCC58"/>
  <rect x="730" y="332" width="52" height="12" rx="6" fill="#2F3750"/>
  <rect x="730" y="354" width="42" height="12" rx="6" fill="#6C77EA"/>
  <rect x="680" y="408" width="132" height="54" rx="18" fill="#0D0F15" stroke="#353D61"/>
  <rect x="704" y="428" width="66" height="10" rx="5" fill="#F2F4FF"/>
</svg>
