<svg width="960" height="600" viewBox="0 0 960 600" fill="none" xmlns="http://www.w3.org/2000/svg">
  <rect width="960" height="600" rx="36" fill="#101010"/>
  <rect x="92" y="88" width="776" height="424" rx="34" fill="#151515" stroke="#1C1C1C"/>
  <rect x="114" y="110" width="150" height="380" rx="26" fill="#1E1808" stroke="#58461A"/>
  <circle cx="146" cy="144" r="12" fill="#E6B322"/>
  <rect x="168" y="136" width="72" height="16" rx="8" fill="#5A4820"/>
  <rect x="136" y="190" width="106" height="16" rx="8" fill="#3E3421"/>
  <rect x="136" y="224" width="84" height="16" rx="8" fill="#3E3421"/>
  <rect x="136" y="258" width="96" height="16" rx="8" fill="#E6B322"/>
  <rect x="136" y="292" width="74" height="16" rx="8" fill="#3E3421"/>
  <rect x="136" y="326" width="92" height="16" rx="8" fill="#3E3421"/>
  <rect x="136" y="398" width="96" height="54" rx="18" fill="#221C10" stroke="#4E3E1A"/>
  <rect x="294" y="110" width="546" height="92" rx="24" fill="#1A1710" stroke="#4E421F"/>
  <circle cx="332" cy="156" r="18" fill="#5B4816"/>
  <rect x="362" y="140" width="188" height="16" rx="8" fill="#463A22"/>
  <rect x="362" y="168" width="118" height="12" rx="6" fill="#E6B322"/>
  <rect x="716" y="136" width="94" height="38" rx="16" fill="#171717" stroke="#2A2A2A"/>
  <rect x="294" y="226" width="242" height="254" rx="26" fill="#171717" stroke="#2A2A2A"/>
  <circle cx="416" cy="340" r="64" stroke="#242A33" stroke-width="16"/>
  <path d="M416 276A64 64 0 0 1 472 368" stroke="#E6B322" stroke-width="16" stroke-linecap="round"/>
  <circle cx="416" cy="340" r="10" fill="#181818" stroke="#3B3427"/>
  <rect x="340" y="422" width="152" height="16" rx="8" fill="#3E3421"/>
  <rect x="340" y="448" width="96" height="14" rx="7" fill="#E6B322"/>
  <rect x="560" y="226" width="280" height="146" rx="26" fill="#161922" stroke="#2E3547"/>
  <rect x="590" y="256" width="148" height="14" rx="7" fill="#2C3446"/>
  <rect x="590" y="288" width="188" height="14" rx="7" fill="#E6B322"/>
  <rect x="590" y="320" width="166" height="14" rx="7" fill="#2C3446"/>
  <rect x="590" y="352" width="126" height="14" rx="7" fill="#2C3446"/>
  <rect x="560" y="390" width="280" height="90" rx="26" fill="#171717" stroke="#2A2A2A"/>
  <rect x="590" y="418" width="82" height="42" rx="16" fill="#3C3112" stroke="#6A5420"/>
  <rect x="688" y="418" width="122" height="18" rx="9" fill="#2E2E2E"/>
  <rect x="688" y="446" width="94" height="14" rx="7" fill="#7DE2AF"/>
</svg>
