<svg width="960" height="600" viewBox="0 0 960 600" fill="none" xmlns="http://www.w3.org/2000/svg">
  <rect width="960" height="600" rx="36" fill="#F7F4ED"/>
  <g filter="url(#shadow)">
    <rect x="120" y="86" width="246" height="428" rx="42" fill="#111827"/>
    <rect x="136" y="106" width="214" height="388" rx="32" fill="#FFFDFC"/>
    <rect x="170" y="146" width="146" height="136" rx="22" fill="#FCFAF6" stroke="#E6DED4"/>
    <rect x="194" y="174" width="98" height="10" rx="5" fill="#CFC4B4"/>
    <rect x="194" y="194" width="84" height="8" rx="4" fill="#ECE5DB"/>
    <rect x="194" y="210" width="92" height="8" rx="4" fill="#ECE5DB"/>
    <rect x="172" y="320" width="142" height="28" rx="14" fill="#FF6F88"/>
    <rect x="172" y="364" width="146" height="18" rx="9" fill="#EFE8DE"/>
    <rect x="172" y="394" width="118" height="18" rx="9" fill="#EFE8DE"/>
  </g>
  <g filter="url(#shadow)">
    <rect x="432" y="118" width="408" height="364" rx="30" fill="#FFFDFC" stroke="#E4DDD3"/>
    <rect x="468" y="152" width="150" height="60" rx="20" fill="#FFF1F4"/>
    <circle cx="512" cy="182" r="18" fill="#FF6F88"/>
    <rect x="542" y="168" width="48" height="10" rx="5" fill="#FF9AAE" fill-opacity="0.36"/>
    <rect x="542" y="186" width="82" height="8" rx="4" fill="#FFD6DE"/>
    <rect x="468" y="248" width="336" height="118" rx="24" fill="#F8FBFF" stroke="#DCE6F7"/>
    <rect x="496" y="278" width="164" height="18" rx="9" fill="#E6F0FF"/>
    <rect x="496" y="308" width="220" height="18" rx="9" fill="#E6F0FF"/>
    <rect x="496" y="338" width="132" height="18" rx="9" fill="#E6F0FF"/>
    <circle cx="760" cy="306" r="36" fill="#111827"/>
    <path d="M760 291V321" stroke="#FFFDFC" stroke-width="8" stroke-linecap="round"/>
    <path d="M746 306H774" stroke="#FFFDFC" stroke-width="8" stroke-linecap="round"/>
    <rect x="468" y="394" width="104" height="34" rx="17" fill="#111827"/>
    <rect x="586" y="394" width="118" height="34" rx="17" fill="#FFFFFF" stroke="#E4DDD3"/>
  </g>
  <defs>
    <filter id="shadow" x="100" y="70" width="760" height="456" filterUnits="userSpaceOnUse" color-interpolation-filters="sRGB">
      <feFlood flood-opacity="0" result="BackgroundImageFix"/>
      <feColorMatrix in="SourceAlpha" type="matrix" values="0 0 0 0 0 0 0 0 0 0 0 0 0 0 0 0 0 0 127 0" result="hardAlpha"/>
      <feOffset dy="12"/>
      <feGaussianBlur stdDeviation="10"/>
      <feComposite in2="hardAlpha" operator="out"/>
      <feColorMatrix type="matrix" values="0 0 0 0 0.203922 0 0 0 0 0.266667 0 0 0 0 0.364706 0 0 0 0.1 0"/>
      <feBlend mode="normal" in2="BackgroundImageFix" result="effect1_dropShadow_0_1"/>
      <feBlend mode="normal" in="SourceGraphic" in2="effect1_dropShadow_0_1" result="shape"/>
    </filter>
  </defs>
</svg>
