<svg width="960" height="600" viewBox="0 0 960 600" fill="none" xmlns="http://www.w3.org/2000/svg">
  <rect width="960" height="600" rx="36" fill="#F7F4ED"/>
  <rect x="68" y="94" width="290" height="412" rx="28" fill="#FFFDFC" stroke="#E4DDD3"/>
  <text x="104" y="138" fill="#7A746D" font-size="18" font-family="Arial, sans-serif">Career roadmap</text>
  <rect x="102" y="160" width="222" height="78" rx="20" fill="#F2F1FF"/>
  <text x="128" y="192" fill="#6C5CFF" font-size="17" font-weight="700" font-family="Arial, sans-serif">Product Designer</text>
  <text x="128" y="218" fill="#7A746D" font-size="16" font-family="Arial, sans-serif">Goal selected • 6 month path</text>
  <circle cx="140" cy="290" r="20" fill="#6C5CFF"/>
  <circle cx="140" cy="362" r="20" fill="#111827"/>
  <circle cx="140" cy="434" r="20" fill="#6ED08B"/>
  <path d="M140 310V342" stroke="#D9D3FF" stroke-width="6" stroke-linecap="round"/>
  <path d="M140 382V414" stroke="#D9D3FF" stroke-width="6" stroke-linecap="round"/>
  <text x="176" y="296" fill="#171717" font-size="20" font-weight="700" font-family="Arial, sans-serif">Foundation</text>
  <text x="176" y="320" fill="#7A746D" font-size="16" font-family="Arial, sans-serif">UI basics, typography, visual hierarchy</text>
  <text x="176" y="368" fill="#171717" font-size="20" font-weight="700" font-family="Arial, sans-serif">Skill gaps</text>
  <text x="176" y="392" fill="#7A746D" font-size="16" font-family="Arial, sans-serif">Research, Figma, critique practice</text>
  <text x="176" y="440" fill="#171717" font-size="20" font-weight="700" font-family="Arial, sans-serif">Next step</text>
  <text x="176" y="464" fill="#7A746D" font-size="16" font-family="Arial, sans-serif">Portfolio sprint with mentor review</text>
  <g filter="url(#shadow)">
    <rect x="408" y="110" width="482" height="380" rx="30" fill="#FFFDFC" stroke="#E4DDD3"/>
  </g>
  <text x="446" y="152" fill="#7A746D" font-size="18" font-family="Arial, sans-serif">Mentor + planning</text>
  <rect x="444" y="178" width="176" height="96" rx="22" fill="#FCFAF6" stroke="#E4DDD3"/>
  <circle cx="486" cy="214" r="18" fill="#111827"/>
  <circle cx="512" cy="214" r="18" fill="#6C5CFF"/>
  <text x="444" y="254" fill="#171717" font-size="18" font-weight="700" font-family="Arial, sans-serif">2 mentors matched</text>
  <text x="444" y="276" fill="#7A746D" font-size="16" font-family="Arial, sans-serif">Product + UX guidance</text>
  <rect x="648" y="178" width="204" height="96" rx="22" fill="#EFF7F0"/>
  <text x="674" y="214" fill="#49B563" font-size="17" font-weight="700" font-family="Arial, sans-serif">Team planning</text>
  <text x="674" y="240" fill="#55615A" font-size="16" font-family="Arial, sans-serif">Shared milestones and roles</text>
  <rect x="444" y="316" width="408" height="126" rx="24" fill="#F8FBFF" stroke="#DCE6F7"/>
  <rect x="474" y="350" width="120" height="18" rx="9" fill="#E4DDFF"/>
  <rect x="474" y="380" width="210" height="18" rx="9" fill="#E9F1FF"/>
  <rect x="698" y="350" width="126" height="18" rx="9" fill="#DDF3E1"/>
  <rect x="698" y="380" width="96" height="18" rx="9" fill="#E9F1FF"/>
  <text x="474" y="334" fill="#171717" font-size="18" font-weight="700" font-family="Arial, sans-serif">Adaptive roadmap</text>
  <defs>
    <filter id="shadow" x="390" y="98" width="518" height="416" filterUnits="userSpaceOnUse" color-interpolation-filters="sRGB">
      <feFlood flood-opacity="0" result="BackgroundImageFix"/>
      <feColorMatrix in="SourceAlpha" type="matrix" values="0 0 0 0 0 0 0 0 0 0 0 0 0 0 0 0 0 0 127 0" result="hardAlpha"/>
      <feOffset dy="10"/>
      <feGaussianBlur stdDeviation="9"/>
      <feComposite in2="hardAlpha" operator="out"/>
      <feColorMatrix type="matrix" values="0 0 0 0 0.203922 0 0 0 0 0.266667 0 0 0 0 0.364706 0 0 0 0.1 0"/>
      <feBlend mode="normal" in2="BackgroundImageFix" result="effect1_dropShadow_0_1"/>
      <feBlend mode="normal" in="SourceGraphic" in2="effect1_dropShadow_0_1" result="shape"/>
    </filter>
  </defs>
</svg>
