<svg width="960" height="600" viewBox="0 0 960 600" fill="none" xmlns="http://www.w3.org/2000/svg">
  <rect width="960" height="600" rx="36" fill="#F7F4ED"/>
  <rect x="72" y="96" width="252" height="408" rx="28" fill="#FFFDFC" stroke="#E4DDD3"/>
  <rect x="104" y="134" width="188" height="72" rx="20" fill="#F2F6FF"/>
  <rect x="126" y="156" width="88" height="12" rx="6" fill="#3B6DFF" fill-opacity="0.26"/>
  <rect x="126" y="178" width="134" height="10" rx="5" fill="#D9E6FF"/>
  <rect x="104" y="234" width="188" height="118" rx="22" fill="#FCFAF6" stroke="#E6DED4"/>
  <rect x="126" y="256" width="70" height="10" rx="5" fill="#CFC4B4"/>
  <rect x="126" y="278" width="122" height="10" rx="5" fill="#ECE5DB"/>
  <rect x="126" y="296" width="96" height="10" rx="5" fill="#ECE5DB"/>
  <rect x="104" y="382" width="108" height="34" rx="17" fill="#3B6DFF"/>
  <rect x="224" y="382" width="68" height="34" rx="17" fill="#FFFFFF" stroke="#D8E4FF"/>
  <g filter="url(#shadow)">
    <rect x="382" y="108" width="506" height="384" rx="28" fill="#FFFDFC" stroke="#E4DDD3"/>
    <circle cx="488" cy="178" r="30" fill="#3B6DFF"/>
    <circle cx="614" cy="252" r="28" fill="#111827"/>
    <circle cx="752" cy="176" r="30" fill="#6ED08B"/>
    <circle cx="764" cy="334" r="28" fill="#F2B94B"/>
    <circle cx="542" cy="358" r="28" fill="#8B7BFF"/>
    <path d="M488 178L614 252" stroke="#D3E0FF" stroke-width="8" stroke-linecap="round"/>
    <path d="M614 252L752 176" stroke="#D3E0FF" stroke-width="8" stroke-linecap="round"/>
    <path d="M614 252L764 334" stroke="#D3E0FF" stroke-width="8" stroke-linecap="round"/>
    <path d="M488 178L542 358" stroke="#E5D8FF" stroke-width="8" stroke-linecap="round"/>
    <rect x="456" y="408" width="124" height="18" rx="9" fill="#ECE5DB"/>
    <rect x="596" y="408" width="96" height="18" rx="9" fill="#ECE5DB"/>
    <rect x="706" y="408" width="72" height="18" rx="9" fill="#ECE5DB"/>
  </g>
  <defs>
    <filter id="shadow" x="362" y="92" width="546" height="424" filterUnits="userSpaceOnUse" color-interpolation-filters="sRGB">
      <feFlood flood-opacity="0" result="BackgroundImageFix"/>
      <feColorMatrix in="SourceAlpha" type="matrix" values="0 0 0 0 0 0 0 0 0 0 0 0 0 0 0 0 0 0 127 0" result="hardAlpha"/>
      <feOffset dy="12"/>
      <feGaussianBlur stdDeviation="10"/>
      <feComposite in2="hardAlpha" operator="out"/>
      <feColorMatrix type="matrix" values="0 0 0 0 0.203922 0 0 0 0 0.266667 0 0 0 0 0.364706 0 0 0 0.1 0"/>
      <feBlend mode="normal" in2="BackgroundImageFix" result="effect1_dropShadow_0_1"/>
      <feBlend mode="normal" in="SourceGraphic" in2="effect1_dropShadow_0_1" result="shape"/>
    </filter>
  </defs>
</svg>
