<svg width="960" height="600" viewBox="0 0 960 600" fill="none" xmlns="http://www.w3.org/2000/svg">
  <rect width="960" height="600" rx="36" fill="#F7F4ED"/>
  <g filter="url(#shadow)">
    <rect x="76" y="96" width="356" height="408" rx="28" fill="#111827"/>
    <rect x="76" y="96" width="356" height="44" rx="28" fill="#1D2430"/>
    <circle cx="112" cy="118" r="6" fill="#FF7B7B"/>
    <circle cx="134" cy="118" r="6" fill="#F4C455"/>
    <circle cx="156" cy="118" r="6" fill="#6ED08B"/>
    <text x="114" y="182" fill="#7EA4FF" font-size="18" font-family="Arial, sans-serif">$ python xiteserver</text>
    <text x="114" y="214" fill="#FFFFFF" font-size="18" font-family="Arial, sans-serif">server online : 3 peers</text>
    <text x="114" y="258" fill="#7EA4FF" font-size="18" font-family="Arial, sans-serif">$ send abhi 4</text>
    <text x="114" y="290" fill="#FFFFFF" font-size="18" font-family="Arial, sans-serif">tx accepted : mempool + 1</text>
    <text x="114" y="334" fill="#7EA4FF" font-size="18" font-family="Arial, sans-serif">$ mine --reward</text>
    <text x="114" y="366" fill="#FFFFFF" font-size="18" font-family="Arial, sans-serif">pow solved : nonce 8842</text>
    <text x="114" y="398" fill="#FFFFFF" font-size="18" font-family="Arial, sans-serif">chain sync : longest chain ok</text>
  </g>
  <g filter="url(#shadow)">
    <rect x="492" y="118" width="390" height="364" rx="30" fill="#FFFDFC" stroke="#E4DDD3"/>
  </g>
  <text x="530" y="158" fill="#7A746D" font-size="18" font-family="Arial, sans-serif">Network + blocks</text>
  <circle cx="560" cy="236" r="24" fill="#111827"/>
  <circle cx="680" cy="190" r="24" fill="#7EA4FF"/>
  <circle cx="804" cy="238" r="24" fill="#6ED08B"/>
  <path d="M582 228L658 198" stroke="#D5E1FF" stroke-width="8" stroke-linecap="round"/>
  <path d="M702 198L782 230" stroke="#D5E1FF" stroke-width="8" stroke-linecap="round"/>
  <rect x="534" y="320" width="92" height="86" rx="20" fill="#F8FBFF" stroke="#DCE6F7"/>
  <rect x="642" y="320" width="92" height="86" rx="20" fill="#F8FBFF" stroke="#DCE6F7"/>
  <rect x="750" y="320" width="92" height="86" rx="20" fill="#F8FBFF" stroke="#DCE6F7"/>
  <text x="555" y="350" fill="#171717" font-size="16" font-weight="700" font-family="Arial, sans-serif">Block 41</text>
  <text x="664" y="350" fill="#171717" font-size="16" font-weight="700" font-family="Arial, sans-serif">Block 42</text>
  <text x="772" y="350" fill="#171717" font-size="16" font-weight="700" font-family="Arial, sans-serif">Block 43</text>
  <text x="551" y="376" fill="#7A746D" font-size="14" font-family="Arial, sans-serif">prev hash</text>
  <text x="659" y="376" fill="#7A746D" font-size="14" font-family="Arial, sans-serif">tx + nonce</text>
  <text x="767" y="376" fill="#7A746D" font-size="14" font-family="Arial, sans-serif">new hash</text>
  <defs>
    <filter id="shadow" x="58" y="80" width="842" height="448" filterUnits="userSpaceOnUse" color-interpolation-filters="sRGB">
      <feFlood flood-opacity="0" result="BackgroundImageFix"/>
      <feColorMatrix in="SourceAlpha" type="matrix" values="0 0 0 0 0 0 0 0 0 0 0 0 0 0 0 0 0 0 127 0" result="hardAlpha"/>
      <feOffset dy="10"/>
      <feGaussianBlur stdDeviation="9"/>
      <feComposite in2="hardAlpha" operator="out"/>
      <feColorMatrix type="matrix" values="0 0 0 0 0.203922 0 0 0 0 0.266667 0 0 0 0 0.364706 0 0 0 0.1 0"/>
      <feBlend mode="normal" in2="BackgroundImageFix" result="effect1_dropShadow_0_1"/>
      <feBlend mode="normal" in="SourceGraphic" in2="effect1_dropShadow_0_1" result="shape"/>
    </filter>
  </defs>
</svg>
