<svg width="960" height="600" viewBox="0 0 960 600" fill="none" xmlns="http://www.w3.org/2000/svg">
  <rect width="960" height="600" rx="36" fill="#F7F4ED"/>
  <g filter="url(#shadow)">
    <rect x="70" y="74" width="820" height="452" rx="34" fill="#FFFCF7" stroke="#E6DED1"/>
    <rect x="102" y="106" width="278" height="388" rx="28" fill="#F1F4FB" stroke="#DBE1F2"/>
    <rect x="130" y="136" width="104" height="20" rx="10" fill="#D7DFF5"/>
    <rect x="130" y="176" width="214" height="86" rx="24" fill="#FFFFFF" stroke="#E4EAF8"/>
    <rect x="152" y="198" width="118" height="14" rx="7" fill="#C5D2F7"/>
    <rect x="152" y="226" width="148" height="18" rx="9" fill="#6D79E8"/>
    <rect x="130" y="282" width="96" height="14" rx="7" fill="#D7DFF5"/>
    <rect x="130" y="314" width="218" height="78" rx="24" fill="#10131B"/>
    <rect x="154" y="338" width="122" height="14" rx="7" fill="#F3F5FF"/>
    <rect x="154" y="366" width="88" height="12" rx="6" fill="#717DFA"/>
    <rect x="130" y="414" width="156" height="16" rx="8" fill="#D7DFF5"/>
    <rect x="130" y="446" width="116" height="16" rx="8" fill="#E8ECF7"/>
    <rect x="414" y="106" width="444" height="388" rx="28" fill="#F3F0FB" stroke="#D6D4F4"/>
    <rect x="446" y="138" width="164" height="22" rx="11" fill="rgba(255,255,255,0.78)"/>
    <g opacity="0.52">
      <path d="M466 178H812" stroke="#D9D4F0" stroke-dasharray="2 10"/>
      <path d="M466 228H812" stroke="#D9D4F0" stroke-dasharray="2 10"/>
      <path d="M466 278H812" stroke="#D9D4F0" stroke-dasharray="2 10"/>
      <path d="M466 328H812" stroke="#D9D4F0" stroke-dasharray="2 10"/>
      <path d="M466 378H812" stroke="#D9D4F0" stroke-dasharray="2 10"/>
      <path d="M466 428H812" stroke="#D9D4F0" stroke-dasharray="2 10"/>
      <path d="M506 122V462" stroke="#D9D4F0" stroke-dasharray="2 10"/>
      <path d="M576 122V462" stroke="#D9D4F0" stroke-dasharray="2 10"/>
      <path d="M646 122V462" stroke="#D9D4F0" stroke-dasharray="2 10"/>
      <path d="M716 122V462" stroke="#D9D4F0" stroke-dasharray="2 10"/>
      <path d="M786 122V462" stroke="#D9D4F0" stroke-dasharray="2 10"/>
    </g>
    <ellipse cx="716" cy="304" rx="128" ry="150" fill="#DDD9FF" opacity="0.55"/>
    <g filter="url(#nodeShadow)">
      <rect x="492" y="198" width="138" height="76" rx="22" fill="#171A24" stroke="#4D56AC"/>
      <rect x="516" y="220" width="84" height="12" rx="6" fill="#EEF1FF"/>
      <rect x="516" y="244" width="56" height="12" rx="6" fill="#6C77EA"/>
      <rect x="674" y="164" width="138" height="76" rx="22" fill="#FFFFFF" fill-opacity="0.86" stroke="#D7DEF7"/>
      <rect x="698" y="186" width="74" height="12" rx="6" fill="#D7DFF5"/>
      <rect x="698" y="210" width="92" height="12" rx="6" fill="#8D97F2"/>
      <rect x="652" y="314" width="138" height="76" rx="22" fill="#FFFFFF" fill-opacity="0.86" stroke="#D7DEF7"/>
      <rect x="676" y="336" width="74" height="12" rx="6" fill="#D7DFF5"/>
      <rect x="676" y="360" width="92" height="12" rx="6" fill="#8D97F2"/>
      <rect x="500" y="360" width="126" height="68" rx="20" fill="#FFFFFF" fill-opacity="0.8" stroke="#D7DEF7"/>
      <rect x="522" y="382" width="70" height="12" rx="6" fill="#D7DFF5"/>
      <rect x="522" y="406" width="54" height="12" rx="6" fill="#7CE0B0"/>
    </g>
    <path d="M630 236C650 230 658 220 674 210" stroke="#8D97F2" stroke-width="5" stroke-linecap="round"/>
    <path d="M743 240C746 272 736 291 721 314" stroke="#A6ADFF" stroke-width="5" stroke-linecap="round"/>
    <path d="M652 352C632 358 622 366 626 385" stroke="#8D97F2" stroke-width="5" stroke-linecap="round"/>
    <path d="M563 360C564 332 578 294 631 271" stroke="#A6ADFF" stroke-width="5" stroke-linecap="round"/>
    <circle cx="630" cy="236" r="7" fill="#8D97F2"/>
    <circle cx="674" cy="210" r="7" fill="#8D97F2"/>
    <circle cx="721" cy="314" r="7" fill="#8D97F2"/>
    <circle cx="652" cy="352" r="7" fill="#8D97F2"/>
    <circle cx="563" cy="360" r="7" fill="#8D97F2"/>
    <rect x="716" y="390" width="98" height="56" rx="18" fill="rgba(18,22,33,0.88)" stroke="#4B55A7"/>
    <rect x="738" y="410" width="50" height="10" rx="5" fill="#F3F5FF"/>
    <rect x="738" y="430" width="32" height="10" rx="5" fill="#7CE0B0"/>
  </g>
  <defs>
    <filter id="shadow" x="50" y="58" width="860" height="492" filterUnits="userSpaceOnUse" color-interpolation-filters="sRGB">
      <feFlood flood-opacity="0" result="BackgroundImageFix"/>
      <feColorMatrix in="SourceAlpha" type="matrix" values="0 0 0 0 0 0 0 0 0 0 0 0 0 0 0 0 0 0 127 0" result="hardAlpha"/>
      <feOffset dy="8"/>
      <feGaussianBlur stdDeviation="10"/>
      <feColorMatrix type="matrix" values="0 0 0 0 0.2 0 0 0 0 0.19 0 0 0 0 0.29 0 0 0 0.12 0"/>
      <feBlend mode="normal" in2="BackgroundImageFix" result="effect1_dropShadow_0_1"/>
      <feBlend mode="normal" in="SourceGraphic" in2="effect1_dropShadow_0_1" result="shape"/>
    </filter>
    <filter id="nodeShadow" x="482" y="154" width="340" height="284" filterUnits="userSpaceOnUse" color-interpolation-filters="sRGB">
      <feFlood flood-opacity="0" result="BackgroundImageFix"/>
      <feColorMatrix in="SourceAlpha" type="matrix" values="0 0 0 0 0 0 0 0 0 0 0 0 0 0 0 0 0 0 127 0" result="hardAlpha"/>
      <feOffset dy="10"/>
      <feGaussianBlur stdDeviation="8"/>
      <feColorMatrix type="matrix" values="0 0 0 0 0.31 0 0 0 0 0.34 0 0 0 0 0.51 0 0 0 0.12 0"/>
      <feBlend mode="normal" in2="BackgroundImageFix" result="effect1_dropShadow_0_1"/>
      <feBlend mode="normal" in="SourceGraphic" in2="effect1_dropShadow_0_1" result="shape"/>
    </filter>
  </defs>
</svg>
