<svg width="960" height="600" viewBox="0 0 960 600" fill="none" xmlns="http://www.w3.org/2000/svg">
  <rect width="960" height="600" rx="36" fill="#F7F4ED"/>
  <g filter="url(#shadow)">
    <rect x="92" y="88" width="776" height="424" rx="34" fill="#FFFDFC" stroke="#E2DDD2"/>
    <rect x="114" y="110" width="150" height="380" rx="26" fill="#FFF7D8" stroke="#F1D47C"/>
    <circle cx="146" cy="144" r="12" fill="#FFD24D"/>
    <rect x="168" y="136" width="72" height="16" rx="8" fill="#F0D48E"/>
    <rect x="136" y="190" width="106" height="16" rx="8" fill="#EADDB8"/>
    <rect x="136" y="224" width="84" height="16" rx="8" fill="#EADDB8"/>
    <rect x="136" y="258" width="96" height="16" rx="8" fill="#FFD24D"/>
    <rect x="136" y="292" width="74" height="16" rx="8" fill="#EADDB8"/>
    <rect x="136" y="326" width="92" height="16" rx="8" fill="#EADDB8"/>
    <rect x="136" y="398" width="96" height="54" rx="18" fill="#FFFFFF" fill-opacity="0.75" stroke="#F0DFAF"/>
    <rect x="294" y="110" width="546" height="92" rx="24" fill="#FCF7E9" stroke="#EFE1BA"/>
    <circle cx="332" cy="156" r="18" fill="#FFF0B0"/>
    <rect x="362" y="140" width="188" height="16" rx="8" fill="#E5D9B8"/>
    <rect x="362" y="168" width="118" height="12" rx="6" fill="#FFD24D"/>
    <rect x="716" y="136" width="94" height="38" rx="16" fill="#FFFFFF" stroke="#E2DDD2"/>
    <rect x="294" y="226" width="242" height="254" rx="26" fill="#FFFDFC" stroke="#E2DDD2"/>
    <circle cx="416" cy="340" r="64" stroke="#EAEFF5" stroke-width="16"/>
    <path d="M416 276A64 64 0 0 1 472 368" stroke="#FFD24D" stroke-width="16" stroke-linecap="round"/>
    <circle cx="416" cy="340" r="10" fill="#FFFFFF" stroke="#E8E0CF"/>
    <rect x="340" y="422" width="152" height="16" rx="8" fill="#E5D9B8"/>
    <rect x="340" y="448" width="96" height="14" rx="7" fill="#FFD24D"/>
    <rect x="560" y="226" width="280" height="146" rx="26" fill="#FFFDFC" stroke="#E2DDD2"/>
    <rect x="590" y="256" width="148" height="14" rx="7" fill="#E7EBF4"/>
    <rect x="590" y="288" width="188" height="14" rx="7" fill="#F0D48E"/>
    <rect x="590" y="320" width="166" height="14" rx="7" fill="#E7EBF4"/>
    <rect x="590" y="352" width="126" height="14" rx="7" fill="#E7EBF4"/>
    <rect x="560" y="390" width="280" height="90" rx="26" fill="#FDFBF6" stroke="#E2DDD2"/>
    <rect x="590" y="418" width="82" height="42" rx="16" fill="#FFF3BE" stroke="#F2D476"/>
    <rect x="688" y="418" width="122" height="18" rx="9" fill="#E5D9B8"/>
    <rect x="688" y="446" width="94" height="14" rx="7" fill="#7DE2AF"/>
  </g>
  <defs>
    <filter id="shadow" x="72" y="72" width="816" height="464" filterUnits="userSpaceOnUse" color-interpolation-filters="sRGB">
      <feFlood flood-opacity="0" result="BackgroundImageFix"/>
      <feColorMatrix in="SourceAlpha" type="matrix" values="0 0 0 0 0 0 0 0 0 0 0 0 0 0 0 0 0 0 127 0" result="hardAlpha"/>
      <feOffset dy="10"/>
      <feGaussianBlur stdDeviation="10"/>
      <feColorMatrix type="matrix" values="0 0 0 0 0.2 0 0 0 0 0.19 0 0 0 0 0.29 0 0 0 0.1 0"/>
      <feBlend mode="normal" in2="BackgroundImageFix" result="effect1_dropShadow_0_1"/>
      <feBlend mode="normal" in="SourceGraphic" in2="effect1_dropShadow_0_1" result="shape"/>
    </filter>
  </defs>
</svg>
