<svg width="960" height="600" viewBox="0 0 960 600" fill="none" xmlns="http://www.w3.org/2000/svg">
  <rect width="960" height="600" rx="36" fill="#F7F4ED"/>
  <g filter="url(#shadow)">
    <rect x="78" y="98" width="320" height="404" rx="28" fill="#FFFDFC" stroke="#E4DDD3"/>
    <rect x="112" y="136" width="252" height="76" rx="22" fill="#F2F1FF"/>
    <circle cx="156" cy="174" r="18" fill="#8B7BFF"/>
    <rect x="186" y="158" width="96" height="12" rx="6" fill="#6C5CFF" fill-opacity="0.32"/>
    <rect x="186" y="180" width="128" height="10" rx="5" fill="#D9D3FF"/>
    <rect x="112" y="244" width="252" height="86" rx="22" fill="#FCFAF6" stroke="#E6DED4"/>
    <rect x="134" y="266" width="84" height="10" rx="5" fill="#CDC1B2"/>
    <rect x="134" y="286" width="154" height="10" rx="5" fill="#ECE5DB"/>
    <rect x="134" y="304" width="124" height="10" rx="5" fill="#ECE5DB"/>
    <rect x="112" y="362" width="118" height="34" rx="17" fill="#6C5CFF"/>
    <rect x="244" y="362" width="120" height="34" rx="17" fill="#FFFFFF" stroke="#DDD8FF"/>
  </g>
  <g filter="url(#shadow)">
    <rect x="446" y="118" width="434" height="364" rx="28" fill="#FFFDFC" stroke="#E4DDD3"/>
    <rect x="484" y="150" width="130" height="58" rx="20" fill="#F2F1FF"/>
    <rect x="500" y="168" width="56" height="10" rx="5" fill="#6C5CFF" fill-opacity="0.24"/>
    <rect x="500" y="186" width="88" height="8" rx="4" fill="#DCD7FF"/>
    <rect x="636" y="150" width="92" height="58" rx="20" fill="#EFF7F0"/>
    <rect x="652" y="168" width="38" height="10" rx="5" fill="#49B563" fill-opacity="0.28"/>
    <rect x="652" y="186" width="52" height="8" rx="4" fill="#D7EFDC"/>
    <rect x="482" y="254" width="360" height="136" rx="24" fill="#F8FBFF" stroke="#DCE6F7"/>
    <circle cx="540" cy="322" r="26" fill="#6C5CFF"/>
    <circle cx="656" cy="322" r="26" fill="#111827"/>
    <circle cx="772" cy="322" r="26" fill="#6ED08B"/>
    <path d="M540 322H656" stroke="#D9D3FF" stroke-width="8" stroke-linecap="round"/>
    <path d="M656 322H772" stroke="#D9D3FF" stroke-width="8" stroke-linecap="round"/>
    <circle cx="804" cy="174" r="22" fill="#111827"/>
    <circle cx="834" cy="192" r="22" fill="#6C5CFF"/>
  </g>
  <defs>
    <filter id="shadow" x="58" y="82" width="842" height="444" filterUnits="userSpaceOnUse" color-interpolation-filters="sRGB">
      <feFlood flood-opacity="0" result="BackgroundImageFix"/>
      <feColorMatrix in="SourceAlpha" type="matrix" values="0 0 0 0 0 0 0 0 0 0 0 0 0 0 0 0 0 0 127 0" result="hardAlpha"/>
      <feOffset dy="12"/>
      <feGaussianBlur stdDeviation="10"/>
      <feComposite in2="hardAlpha" operator="out"/>
      <feColorMatrix type="matrix" values="0 0 0 0 0.203922 0 0 0 0 0.266667 0 0 0 0 0.364706 0 0 0 0.1 0"/>
      <feBlend mode="normal" in2="BackgroundImageFix" result="effect1_dropShadow_0_1"/>
      <feBlend mode="normal" in="SourceGraphic" in2="effect1_dropShadow_0_1" result="shape"/>
    </filter>
  </defs>
</svg>
