<svg width="960" height="600" viewBox="0 0 960 600" fill="none" xmlns="http://www.w3.org/2000/svg">
  <rect width="960" height="600" rx="36" fill="#F7F4ED"/>
  <g filter="url(#shadow)">
    <rect x="96" y="84" width="768" height="432" rx="34" fill="#FFFDFC" stroke="#E2DDD2"/>
    <rect x="96" y="84" width="768" height="50" rx="34" fill="#F3EFE7"/>
    <circle cx="132" cy="109" r="6.5" fill="#FFB84C"/>
    <circle cx="152" cy="109" r="6.5" fill="#FF7D68"/>
    <circle cx="172" cy="109" r="6.5" fill="#74D995"/>
    <rect x="120" y="152" width="150" height="338" rx="24" fill="#F6F3EB" stroke="#E4DED3"/>
    <rect x="142" y="182" width="106" height="16" rx="8" fill="#DBE3F5"/>
    <rect x="142" y="218" width="84" height="14" rx="7" fill="#E2DCCF"/>
    <rect x="142" y="246" width="96" height="14" rx="7" fill="#E2DCCF"/>
    <rect x="142" y="274" width="72" height="14" rx="7" fill="#6E78E8"/>
    <rect x="142" y="332" width="92" height="14" rx="7" fill="#E2DCCF"/>
    <rect x="142" y="360" width="78" height="14" rx="7" fill="#E2DCCF"/>
    <rect x="142" y="388" width="104" height="14" rx="7" fill="#E2DCCF"/>
    <rect x="292" y="152" width="344" height="338" rx="24" fill="#11131A" stroke="#2F3650"/>
    <rect x="320" y="176" width="92" height="20" rx="10" fill="#1D2332"/>
    <rect x="420" y="176" width="82" height="20" rx="10" fill="#252B3E"/>
    <rect x="514" y="176" width="96" height="20" rx="10" fill="#252B3E"/>
    <rect x="324" y="226" width="182" height="12" rx="6" fill="#8894FF"/>
    <rect x="324" y="258" width="224" height="16" rx="8" fill="#F2F4FF"/>
    <rect x="324" y="292" width="176" height="12" rx="6" fill="#C0C8D8"/>
    <rect x="348" y="324" width="144" height="12" rx="6" fill="#7DE2AF"/>
    <rect x="324" y="376" width="280" height="82" rx="20" fill="#151924" stroke="#323A5E"/>
    <rect x="348" y="402" width="116" height="12" rx="6" fill="#E6EAF5"/>
    <rect x="348" y="426" width="186" height="12" rx="6" fill="#5D72FF"/>
    <rect x="654" y="152" width="186" height="338" rx="24" fill="#FBF8F2" stroke="#E2DDD2"/>
    <rect x="680" y="182" width="96" height="18" rx="9" fill="#E1E7F7"/>
    <rect x="680" y="220" width="132" height="74" rx="20" fill="#FFFFFF" stroke="#E2E7F4"/>
    <circle cx="710" cy="247" r="11" fill="#6C77EA"/>
    <rect x="730" y="238" width="52" height="12" rx="6" fill="#D2DCF5"/>
    <rect x="730" y="260" width="42" height="12" rx="6" fill="#7DE2AF"/>
    <rect x="680" y="314" width="132" height="74" rx="20" fill="#FFFFFF" stroke="#E2E7F4"/>
    <circle cx="710" cy="341" r="11" fill="#FFCC58"/>
    <rect x="730" y="332" width="52" height="12" rx="6" fill="#D2DCF5"/>
    <rect x="730" y="354" width="42" height="12" rx="6" fill="#6C77EA"/>
    <rect x="680" y="408" width="132" height="54" rx="18" fill="#11131A" stroke="#353D61"/>
    <rect x="704" y="428" width="66" height="10" rx="5" fill="#F2F4FF"/>
  </g>
  <defs>
    <filter id="shadow" x="76" y="68" width="808" height="472" filterUnits="userSpaceOnUse" color-interpolation-filters="sRGB">
      <feFlood flood-opacity="0" result="BackgroundImageFix"/>
      <feColorMatrix in="SourceAlpha" type="matrix" values="0 0 0 0 0 0 0 0 0 0 0 0 0 0 0 0 0 0 127 0" result="hardAlpha"/>
      <feOffset dy="10"/>
      <feGaussianBlur stdDeviation="10"/>
      <feColorMatrix type="matrix" values="0 0 0 0 0.2 0 0 0 0 0.19 0 0 0 0 0.29 0 0 0 0.1 0"/>
      <feBlend mode="normal" in2="BackgroundImageFix" result="effect1_dropShadow_0_1"/>
      <feBlend mode="normal" in="SourceGraphic" in2="effect1_dropShadow_0_1" result="shape"/>
    </filter>
  </defs>
</svg>
