<svg width="640" height="448" viewBox="0 0 640 448" fill="none" xmlns="http://www.w3.org/2000/svg">
  <rect width="640" height="448" rx="30" fill="#F7F4ED"/>
  <g filter="url(#shadow)">
    <rect x="60" y="84" width="244" height="280" rx="26" fill="#FFFDFC" stroke="#E4DDD3"/>
    <rect x="92" y="120" width="180" height="98" rx="18" fill="#FCFAF6" stroke="#D8D1C8" stroke-dasharray="8 8"/>
    <path d="M182 144V188" stroke="#C1B4A3" stroke-width="4" stroke-linecap="round"/>
    <path d="M160 166H204" stroke="#C1B4A3" stroke-width="4" stroke-linecap="round"/>
    <rect x="92" y="244" width="88" height="26" rx="13" fill="#FFFFFF" stroke="#E4DDD3"/>
    <rect x="188" y="244" width="84" height="26" rx="13" fill="#FFFFFF" stroke="#E4DDD3"/>
    <rect x="92" y="286" width="180" height="18" rx="9" fill="#EEE7DE"/>
    <rect x="92" y="316" width="148" height="18" rx="9" fill="#EEE7DE"/>
  </g>
  <g filter="url(#shadow)">
    <rect x="334" y="104" width="246" height="240" rx="26" fill="#F1F5FF" stroke="#C9D8FF"/>
    <rect x="366" y="136" width="112" height="28" rx="14" fill="#3B6DFF"/>
    <rect x="366" y="186" width="182" height="18" rx="9" fill="#FFFFFF" fill-opacity="0.88"/>
    <rect x="366" y="214" width="154" height="18" rx="9" fill="#FFFFFF" fill-opacity="0.88"/>
    <rect x="366" y="242" width="164" height="18" rx="9" fill="#FFFFFF" fill-opacity="0.88"/>
    <rect x="366" y="282" width="92" height="26" rx="13" fill="#FFFFFF" stroke="#D8E4FF"/>
  </g>
  <circle cx="318" cy="220" r="28" fill="#111827"/>
  <path d="M318 201L322.282 214.718H336L324.859 223.164L329.141 236.882L318 228.436L306.859 236.882L311.141 223.164L300 214.718H313.718L318 201Z" fill="#F7F4ED"/>
  <path d="M304 124C321 124 330 136 330 148" stroke="#D1C5B6" stroke-width="3" stroke-linecap="round"/>
  <path d="M302 316C320 316 330 304 330 292" stroke="#D1C5B6" stroke-width="3" stroke-linecap="round"/>
  <defs>
    <filter id="shadow" x="44" y="72" width="552" height="308" filterUnits="userSpaceOnUse" color-interpolation-filters="sRGB">
      <feFlood flood-opacity="0" result="BackgroundImageFix"/>
      <feColorMatrix in="SourceAlpha" type="matrix" values="0 0 0 0 0 0 0 0 0 0 0 0 0 0 0 0 0 0 127 0" result="hardAlpha"/>
      <feOffset dy="10"/>
      <feGaussianBlur stdDeviation="8"/>
      <feComposite in2="hardAlpha" operator="out"/>
      <feColorMatrix type="matrix" values="0 0 0 0 0.203922 0 0 0 0 0.266667 0 0 0 0 0.364706 0 0 0 0.1 0"/>
      <feBlend mode="normal" in2="BackgroundImageFix" result="effect1_dropShadow_0_1"/>
      <feBlend mode="normal" in="SourceGraphic" in2="effect1_dropShadow_0_1" result="shape"/>
    </filter>
  </defs>
</svg>
